<svg xmlns="http://www.w3.org/2000/svg" viewBox="0 0 800 600" width="800" height="600">
  <!-- Background grid effect -->
  <defs>
    <linearGradient id="gridGradient" x1="0%" y1="0%" x2="100%" y2="100%">
      <stop offset="0%" stop-color="#0A0A0F" stop-opacity="0.1"/>
      <stop offset="100%" stop-color="#070A0F" stop-opacity="0.4"/>
    </linearGradient>
    
    <linearGradient id="purpleGlow" x1="0%" y1="0%" x2="100%" y2="100%">
      <stop offset="0%" stop-color="#9D3FDD" stop-opacity="0.8"/>
      <stop offset="100%" stop-color="#7B2AB5" stop-opacity="0.6"/>
    </linearGradient>
    
    <filter id="glow" x="-20%" y="-20%" width="140%" height="140%">
      <feGaussianBlur stdDeviation="10" result="blur"/>
      <feComposite in="SourceGraphic" in2="blur" operator="over"/>
    </filter>
    
    <pattern id="grid" width="40" height="40" patternUnits="userSpaceOnUse">
      <path d="M 40 0 L 0 0 0 40" fill="none" stroke="rgba(157, 63, 221, 0.2)" stroke-width="0.5"/>
    </pattern>
  </defs>
  
  <!-- Grid background -->
  <rect width="100%" height="100%" fill="url(#gridGradient)"/>
  <rect width="100%" height="100%" fill="url(#grid)"/>
  
  <!-- Main shield -->
  <g transform="translate(400, 300)" filter="url(#glow)">
    <path d="M0,-180 L120,-120 L120,50 L0,150 L-120,50 L-120,-120 Z" fill="#0F1317" stroke="#9D3FDD" stroke-width="4"/>
    
    <!-- Shield inner details -->
    <path d="M0,-150 L100,-100 L100,40 L0,120 L-100,40 L-100,-100 Z" fill="none" stroke="#BE7DFF" stroke-width="2" opacity="0.6"/>
    
    <!-- Lock icon in center -->
    <rect x="-30" y="-10" width="60" height="60" rx="10" fill="#070A0F" stroke="#9D3FDD" stroke-width="3"/>
    <circle cx="0" cy="-10" r="15" fill="none" stroke="#9D3FDD" stroke-width="3"/>
    <line x1="0" y1="5" x2="0" y2="25" stroke="#9D3FDD" stroke-width="3"/>
  </g>
  
  <!-- Scanning lines effect -->
  <g opacity="0.8">
    <line x1="150" y1="150" x2="650" y2="150" stroke="#9D3FDD" stroke-width="1.5" stroke-dasharray="10,15">
      <animate attributeName="y1" from="150" to="450" dur="3s" repeatCount="indefinite"/>
      <animate attributeName="y2" from="150" to="450" dur="3s" repeatCount="indefinite"/>
      <animate attributeName="opacity" values="0.2;0.8;0.2" dur="3s" repeatCount="indefinite"/>
    </line>
  </g>
  
  <!-- Connection nodes -->
  <g>
    <!-- Node 1 -->
    <circle cx="200" cy="200" r="8" fill="#0A0A0F" stroke="#9D3FDD" stroke-width="2">
      <animate attributeName="r" values="8;10;8" dur="2s" repeatCount="indefinite"/>
    </circle>
    
    <!-- Node 2 -->
    <circle cx="600" cy="200" r="8" fill="#0A0A0F" stroke="#9D3FDD" stroke-width="2">
      <animate attributeName="r" values="8;10;8" dur="2s" repeatCount="indefinite" begin="0.3s"/>
    </circle>
    
    <!-- Node 3 -->
    <circle cx="200" cy="400" r="8" fill="#0A0A0F" stroke="#9D3FDD" stroke-width="2">
      <animate attributeName="r" values="8;10;8" dur="2s" repeatCount="indefinite" begin="0.6s"/>
    </circle>
    
    <!-- Node 4 -->
    <circle cx="600" cy="400" r="8" fill="#0A0A0F" stroke="#9D3FDD" stroke-width="2">
      <animate attributeName="r" values="8;10;8" dur="2s" repeatCount="indefinite" begin="0.9s"/>
    </circle>
    
    <!-- Connection lines -->
    <line x1="200" y1="200" x2="600" y2="200" stroke="#9D3FDD" stroke-width="1.5" stroke-dasharray="5,5"/>
    <line x1="600" y1="200" x2="600" y2="400" stroke="#9D3FDD" stroke-width="1.5" stroke-dasharray="5,5"/>
    <line x1="600" y1="400" x2="200" y2="400" stroke="#9D3FDD" stroke-width="1.5" stroke-dasharray="5,5"/>
    <line x1="200" y1="400" x2="200" y2="200" stroke="#9D3FDD" stroke-width="1.5" stroke-dasharray="5,5"/>
    <line x1="200" y1="200" x2="600" y2="400" stroke="#9D3FDD" stroke-width="1.5" stroke-dasharray="5,5"/>
    <line x1="600" y1="200" x2="200" y2="400" stroke="#9D3FDD" stroke-width="1.5" stroke-dasharray="5,5"/>
  </g>
  
  <!-- Data packets -->
  <g>
    <circle cx="300" cy="300" r="4" fill="#BE7DFF">
      <animate attributeName="cx" values="200;600;600;200;200" dur="6s" repeatCount="indefinite"/>
      <animate attributeName="cy" values="200;200;400;400;200" dur="6s" repeatCount="indefinite"/>
    </circle>
    
    <circle cx="500" cy="300" r="4" fill="#BE7DFF">
      <animate attributeName="cx" values="600;200;200;600;600" dur="6s" repeatCount="indefinite"/>
      <animate attributeName="cy" values="400;400;200;200;400" dur="6s" repeatCount="indefinite"/>
    </circle>
  </g>
  
  <!-- Code/Data blocks around the shield -->
  <g opacity="0.8">
    <!-- Code block 1 -->
    <rect x="100" y="150" width="80" height="15" rx="2" fill="none" stroke="#9D3FDD" stroke-width="1"/>
    <rect x="100" y="170" width="40" height="15" rx="2" fill="none" stroke="#9D3FDD" stroke-width="1"/>
    <rect x="100" y="190" width="60" height="15" rx="2" fill="none" stroke="#9D3FDD" stroke-width="1"/>
    
    <!-- Code block 2 -->
    <rect x="620" y="150" width="80" height="15" rx="2" fill="none" stroke="#9D3FDD" stroke-width="1"/>
    <rect x="620" y="170" width="40" height="15" rx="2" fill="none" stroke="#9D3FDD" stroke-width="1"/>
    <rect x="620" y="190" width="60" height="15" rx="2" fill="none" stroke="#9D3FDD" stroke-width="1"/>
    
    <!-- Code block 3 -->
    <rect x="100" y="420" width="80" height="15" rx="2" fill="none" stroke="#9D3FDD" stroke-width="1"/>
    <rect x="100" y="440" width="40" height="15" rx="2" fill="none" stroke="#9D3FDD" stroke-width="1"/>
    <rect x="100" y="460" width="60" height="15" rx="2" fill="none" stroke="#9D3FDD" stroke-width="1"/>
    
    <!-- Code block 4 -->
    <rect x="620" y="420" width="80" height="15" rx="2" fill="none" stroke="#9D3FDD" stroke-width="1"/>
    <rect x="620" y="440" width="40" height="15" rx="2" fill="none" stroke="#9D3FDD" stroke-width="1"/>
    <rect x="620" y="460" width="60" height="15" rx="2" fill="none" stroke="#9D3FDD" stroke-width="1"/>
  </g>
</svg> 