<?xml version="1.0" encoding="UTF-8"?>
<svg width="800" height="200" viewBox="0 0 800 200" version="1.1" xmlns="http://www.w3.org/2000/svg">
    <!-- Definitions for gradients and patterns -->
    <defs>
        <!-- Main gradient for the logo -->
        <linearGradient id="logoGradient" x1="0%" y1="0%" x2="100%" y2="100%">
            <stop offset="0%" style="stop-color:#9D3FDD;stop-opacity:1" />
            <stop offset="100%" style="stop-color:#7B2AB5;stop-opacity:1" />
        </linearGradient>

        <!-- Glow effect -->
        <filter id="glow" x="-50%" y="-50%" width="200%" height="200%">
            <feGaussianBlur stdDeviation="2" result="coloredBlur"/>
            <feMerge>
                <feMergeNode in="coloredBlur"/>
                <feMergeNode in="SourceGraphic"/>
            </feMerge>
        </filter>

        <!-- Subtle pattern for blades -->
        <pattern id="bladePattern" x="0" y="0" width="4" height="4" patternUnits="userSpaceOnUse">
            <circle cx="2" cy="2" r="0.5" fill="#BE7DFF" fill-opacity="0.3"/>
        </pattern>

        <!-- Gradient for blade fills -->
        <linearGradient id="bladeGradient" x1="0%" y1="0%" x2="100%" y2="100%">
            <stop offset="0%" style="stop-color:#9D3FDD;stop-opacity:1" />
            <stop offset="50%" style="stop-color:#BE7DFF;stop-opacity:1" />
            <stop offset="100%" style="stop-color:#9D3FDD;stop-opacity:1" />
        </linearGradient>

        <!-- Text gradient -->
        <linearGradient id="textGradient" x1="0%" y1="0%" x2="0%" y2="100%">
            <stop offset="0%" style="stop-color:#BE7DFF;stop-opacity:1" />
            <stop offset="100%" style="stop-color:#9D3FDD;stop-opacity:1" />
        </linearGradient>
    </defs>

    <!-- Background glow effect -->
    <circle cx="110" cy="100" r="60" fill="#9D3FDD" filter="url(#glow)" opacity="0.1"/>

    <!-- Logo Symbol -->
    <g transform="translate(50, 40)">
        <!-- Windmill/Shuriken shape with enhanced design -->
        <g transform="translate(60, 60)">
            <!-- Outer ring -->
            <circle cx="0" cy="0" r="45" fill="none" stroke="url(#logoGradient)" stroke-width="2" opacity="0.3"/>
            
            <g transform="rotate(45, 0, 0)">
                <!-- Enhanced blades with gradient and pattern -->
                <g filter="url(#glow)">
                    <path d="M0,-40 L20,-20 L0,0 L-20,-20 Z" fill="url(#bladeGradient)"/>
                    <path d="M0,40 L20,20 L0,0 L-20,20 Z" fill="url(#bladeGradient)"/>
                    <path d="M-40,0 L-20,20 L0,0 L-20,-20 Z" fill="url(#bladeGradient)"/>
                    <path d="M40,0 L20,20 L0,0 L20,-20 Z" fill="url(#bladeGradient)"/>
                </g>
                <!-- Pattern overlay -->
                <g opacity="0.5">
                    <path d="M0,-40 L20,-20 L0,0 L-20,-20 Z" fill="url(#bladePattern)"/>
                    <path d="M0,40 L20,20 L0,0 L-20,20 Z" fill="url(#bladePattern)"/>
                    <path d="M-40,0 L-20,20 L0,0 L-20,-20 Z" fill="url(#bladePattern)"/>
                    <path d="M40,0 L20,20 L0,0 L20,-20 Z" fill="url(#bladePattern)"/>
                </g>
            </g>

            <!-- Enhanced center circle -->
            <circle cx="0" cy="0" r="8" fill="url(#logoGradient)" filter="url(#glow)"/>
            <circle cx="0" cy="0" r="4" fill="#BE7DFF" opacity="0.8"/>
        </g>
    </g>
    
    <!-- Text "VULNX" with enhanced styling -->
    <g transform="translate(200, 110)" filter="url(#glow)">
        <text font-family="Arial, sans-serif" font-weight="900" font-size="72" fill="url(#textGradient)" letter-spacing="2">
            VULNX
        </text>
        <!-- Text outline for depth -->
        <text font-family="Arial, sans-serif" font-weight="900" font-size="72" fill="none" 
              stroke="#BE7DFF" stroke-width="1" stroke-opacity="0.3" letter-spacing="2">
            VULNX
        </text>
    </g>
    
    <!-- Enhanced Tagline -->
    <g transform="translate(200, 140)">
        <text font-family="Arial, sans-serif" font-weight="500" font-size="16" fill="#9ca3af" letter-spacing="1.5">
            Security By Intelligence
        </text>
    </g>

    <!-- Decorative elements -->
    <g transform="translate(200, 145)" opacity="0.2">
        <line x1="0" y1="0" x2="300" y2="0" stroke="url(#logoGradient)" stroke-width="1"/>
    </g>
</svg> 