<?xml version="1.0" encoding="UTF-8"?>
<svg width="800" height="400" viewBox="0 0 800 400" xmlns="http://www.w3.org/2000/svg" xmlns:xlink="http://www.w3.org/1999/xlink">
  <style>
    /* Base styles */
    text {
      font-family: 'Arial', sans-serif;
      fill: white;
      text-anchor: middle;
    }
    .title {
      font-size: 22px;
      font-weight: bold;
      fill: #f8f8f8;
    }
    .subtitle {
      font-size: 14px;
      fill: #a3a3a3;
    }
    
    /* Node styles */
    .node {
      stroke: rgba(128, 0, 255, 0.3);
      stroke-width: 2;
      cursor: pointer;
      transition: all 0.3s ease;
    }
    .node:hover {
      stroke: #ff00ff;
      stroke-width: 3;
      filter: drop-shadow(0 0 8px rgba(255, 0, 255, 0.7));
    }
    .node-text {
      font-size: 14px;
      font-weight: bold;
      pointer-events: none;
    }
    
    /* Connection styles */
    .connection {
      stroke: #9333ea;
      stroke-width: 2;
      stroke-dasharray: 0;
      marker-end: url(#arrowhead);
    }
    
    /* Animation keyframes */
    @keyframes pulse {
      0% { opacity: 0.7; }
      50% { opacity: 1; }
      100% { opacity: 0.7; }
    }
    @keyframes dash {
      to { stroke-dashoffset: -50; }
    }
    
    /* Animated elements */
    .pulse {
      animation: pulse 2s infinite ease-in-out;
    }
    .flow {
      stroke-dasharray: 5, 5;
      animation: dash 2s linear infinite;
    }
    .glow {
      filter: drop-shadow(0 0 5px rgba(147, 51, 234, 0.7));
    }
    
    /* Tooltip styles */
    .tooltip {
      opacity: 0;
      transition: opacity 0.3s;
    }
    .tooltip-trigger:hover + .tooltip {
      opacity: 1;
    }
    
    /* Component-specific styles */
    #target-input { fill: #9333ea; }
    #cms-detection { fill: #7928ca; }
    #scanner { fill: #6b21a8; }
    #exploits { fill: #7928ca; }
    #analysis-engine { fill: #5b21b6; }
    #reporting { fill: #4c1d95; }
    #output { fill: #7928ca; }
  </style>
  
  <!-- Definitions for arrows and effects -->
  <defs>
    <marker id="arrowhead" markerWidth="10" markerHeight="7" refX="9" refY="3.5" orient="auto">
      <polygon points="0 0, 10 3.5, 0 7" fill="#9333ea" />
    </marker>
    
    <filter id="glow" x="-20%" y="-20%" width="140%" height="140%">
      <feGaussianBlur stdDeviation="3" result="blur" />
      <feComposite in="SourceGraphic" in2="blur" operator="over" />
    </filter>
  </defs>
  
  <!-- Title -->
  <text x="400" y="40" class="title">Vulnx Scanning Workflow Pipeline</text>
  <text x="400" y="65" class="subtitle">Interactive visualization of the security scanning process</text>
  
  <!-- Connections -->
  <path d="M180,200 C220,200 220,150 260,150" class="connection flow" />
  <path d="M180,200 C220,200 220,200 260,200" class="connection flow" />
  <path d="M180,200 C220,200 220,250 260,250" class="connection flow" />
  <path d="M350,150 C390,150 390,175 430,175" class="connection flow" />
  <path d="M350,200 C390,200 390,200 430,200" class="connection flow" />
  <path d="M350,250 C390,250 390,225 430,225" class="connection flow" />
  <path d="M520,200 C560,200 560,200 600,200" class="connection flow" />
  <path d="M690,200 C730,200 730,200 770,200" class="connection flow" />
  
  <!-- Nodes -->
  <g class="tooltip-trigger">
    <circle id="target-input" cx="120" cy="200" r="60" class="node pulse glow" />
    <text x="120" y="200" class="node-text">Target Input</text>
    <text x="120" y="220" class="subtitle">URLs/IPs</text>
    <g class="tooltip" transform="translate(120, 120)">
      <rect x="-90" y="-35" width="180" height="70" rx="5" fill="#1a1a2e" stroke="#9333ea" stroke-width="1" />
      <text x="0" y="-15" fill="#f8f8f8" font-size="12" text-anchor="middle">Target Input</text>
      <text x="0" y="5" fill="#a3a3a3" font-size="10" text-anchor="middle">Process URLs, domains, or IP</text>
      <text x="0" y="25" fill="#a3a3a3" font-size="10" text-anchor="middle">addresses for scanning</text>
    </g>
  </g>
  
  <g class="tooltip-trigger">
    <rect id="cms-detection" x="260" y="120" width="90" height="60" rx="10" class="node" />
    <text x="305" y="150" class="node-text">CMS</text>
    <text x="305" y="170" class="subtitle">Detection</text>
    <g class="tooltip" transform="translate(305, 90)">
      <rect x="-100" y="-35" width="200" height="70" rx="5" fill="#1a1a2e" stroke="#9333ea" stroke-width="1" />
      <text x="0" y="-15" fill="#f8f8f8" font-size="12" text-anchor="middle">CMS Detection</text>
      <text x="0" y="5" fill="#a3a3a3" font-size="10" text-anchor="middle">Identifies target's CMS</text>
      <text x="0" y="25" fill="#a3a3a3" font-size="10" text-anchor="middle">WordPress, Joomla, Drupal, etc.</text>
    </g>
  </g>
  
  <g class="tooltip-trigger">
    <rect id="scanner" x="260" y="170" width="90" height="60" rx="10" class="node" />
    <text x="305" y="200" class="node-text">Scanner</text>
    <text x="305" y="220" class="subtitle">Engine</text>
    <g class="tooltip" transform="translate(305, 260)">
      <rect x="-100" y="-35" width="200" height="70" rx="5" fill="#1a1a2e" stroke="#9333ea" stroke-width="1" />
      <text x="0" y="-15" fill="#f8f8f8" font-size="12" text-anchor="middle">Scanner Engine</text>
      <text x="0" y="5" fill="#a3a3a3" font-size="10" text-anchor="middle">Runs vulnerability detection</text>
      <text x="0" y="25" fill="#a3a3a3" font-size="10" text-anchor="middle">High-performance scanning</text>
    </g>
  </g>
  
  <g class="tooltip-trigger">
    <rect id="exploits" x="260" y="220" width="90" height="60" rx="10" class="node" />
    <text x="305" y="250" class="node-text">Exploits</text>
    <text x="305" y="270" class="subtitle">Database</text>
    <g class="tooltip" transform="translate(305, 310)">
      <rect x="-100" y="-35" width="200" height="70" rx="5" fill="#1a1a2e" stroke="#9333ea" stroke-width="1" />
      <text x="0" y="-15" fill="#f8f8f8" font-size="12" text-anchor="middle">Exploits Database</text>
      <text x="0" y="5" fill="#a3a3a3" font-size="10" text-anchor="middle">Repository of known</text>
      <text x="0" y="25" fill="#a3a3a3" font-size="10" text-anchor="middle">vulnerabilities and exploits</text>
    </g>
  </g>
  
  <g class="tooltip-trigger">
    <circle id="analysis-engine" cx="475" cy="200" r="60" class="node glow" />
    <text x="475" y="195" class="node-text">Analysis</text>
    <text x="475" y="215" class="subtitle">Engine</text>
    <g class="tooltip" transform="translate(475, 120)">
      <rect x="-100" y="-35" width="200" height="70" rx="5" fill="#1a1a2e" stroke="#9333ea" stroke-width="1" />
      <text x="0" y="-15" fill="#f8f8f8" font-size="12" text-anchor="middle">Analysis Engine</text>
      <text x="0" y="5" fill="#a3a3a3" font-size="10" text-anchor="middle">Processes raw scan data</text>
      <text x="0" y="25" fill="#a3a3a3" font-size="10" text-anchor="middle">Identifies vulnerabilities</text>
    </g>
  </g>
  
  <g class="tooltip-trigger">
    <rect id="reporting" x="600" y="170" width="90" height="60" rx="10" class="node" />
    <text x="645" y="205" class="node-text">Reporting</text>
    <g class="tooltip" transform="translate(645, 140)">
      <rect x="-100" y="-35" width="200" height="70" rx="5" fill="#1a1a2e" stroke="#9333ea" stroke-width="1" />
      <text x="0" y="-15" fill="#f8f8f8" font-size="12" text-anchor="middle">Reporting</text>
      <text x="0" y="5" fill="#a3a3a3" font-size="10" text-anchor="middle">Generate detailed reports</text>
      <text x="0" y="25" fill="#a3a3a3" font-size="10" text-anchor="middle">Security assessment summaries</text>
    </g>
  </g>
  
  <g class="tooltip-trigger">
    <polygon id="output" points="770,170 820,200 770,230" class="node pulse" />
    <text x="785" y="205" class="node-text">Output</text>
    <g class="tooltip" transform="translate(785, 150)">
      <rect x="-90" y="-35" width="180" height="70" rx="5" fill="#1a1a2e" stroke="#9333ea" stroke-width="1" />
      <text x="0" y="-15" fill="#f8f8f8" font-size="12" text-anchor="middle">Output</text>
      <text x="0" y="5" fill="#a3a3a3" font-size="10" text-anchor="middle">Final results and</text>
      <text x="0" y="25" fill="#a3a3a3" font-size="10" text-anchor="middle">actionable insights</text>
    </g>
  </g>
  
  <!-- Interactive script -->
  <script type="text/ecmascript"><![CDATA[
    // Add click handlers for nodes
    const nodes = document.querySelectorAll('.node');
    
    nodes.forEach(node => {
      node.addEventListener('click', function() {
        // Pulse effect on click
        this.classList.add('pulse');
        setTimeout(() => {
          this.classList.remove('pulse');
        }, 2000);
        
        // Show details (can be expanded to trigger custom events)
        const nodeId = this.id;
        if (window.parent && window.parent.handleNodeClick) {
          window.parent.handleNodeClick(nodeId);
        }
      });
    });
  ]]></script>
</svg>
